# xmcd CD database file
#
# Track frame offsets:
#	150
#	12729
#	24006
#	37175
#	49247
#	63354
#	74212
#	87403
#	97763
#	112131
#	124378
#	140376
#	151705
#	160404
#	176105
#	188591
#	200662
#	211708
#	226306
#
# Disc length: 3154 seconds
#
# Revision: 4
# Processed by: cddbd v1.5.2PL0 Copyright (c) Steve Scherf et al.
# Submitted via: CDex 1.70beta2
#
DISCID=0f0c5013
DTITLE=Fud Candrix and sein Orchester - Fud Candrix and sein Orchester
DYEAR=1942
DGENRE=Jazz
TTITLE0=Musik für Erika
TTITLE1=Farewell Blues
TTITLE2=Serenade für Nelly
TTITLE3=Tiger Rag
TTITLE4=Indian Love Call
TTITLE5=Ach, Fräulein Gretchen
TTITLE6=Two Left Feet
TTITLE7=Midnite In Harlem
TTITLE8=Always
TTITLE9=Milenberg Joys
TTITLE10=Swingnight in Dixieland
TTITLE11=Waddlin' At The Waldorf
TTITLE12=Frankie And Johnnie
TTITLE13=At the Woodchoppers Ball
TTITLE14=Shoot Me Meatballs Dominick Boy
TTITLE15=Table D'Hote
TTITLE16=Introduction Mister Basie
TTITLE17=The Oldest Swinger in Harlem
TTITLE18=Broadway Shuffle
EXTD=YEAR: 1942
EXTT0=
EXTT1=
EXTT2=
EXTT3=
EXTT4=
EXTT5=
EXTT6=
EXTT7=
EXTT8=
EXTT9=
EXTT10=
EXTT11=
EXTT12=
EXTT13=
EXTT14=
EXTT15=
EXTT16=
EXTT17=
EXTT18=
PLAYORDER=
